<svg xmlns="http://www.w3.org/2000/svg" width="557" height="47" viewBox="0 0 557 47"><g><g><path fill="#ffc901" d="M502.766 23.004c-2.641 0-5.348 1.907-5.348 4.246 0 .89.303 1.842 1.148 2.428.411.324.411.8-.066 1.32-.563.607-1.385 1.083-2.208 1.083-.996 0-2.317-.93-2.317-2.73 0-.995.65-3.14 3.248-5.09 2.728-2.08 5.067-2.773 7.752-2.946 5.672-4.528 10.262-5.351 13.597-5.351 3.638 0 6.884 1.17 8.53 1.82 1.473.562 7.19 2.946 11.238 4.722 4.243 1.755 7.902 2.817 10.414 2.817 2.014 0 4.916-.716 4.916-3.185 0-.91-.369-1.538-.867-1.907-.281-.238-.498-.585-.498-.888 0-.91.823-2.295 2.252-2.295 1.602 0 2.468 1.603 2.468 2.816 0 3.292-3.594 5.524-6.02 6.52-4.46 4.744-8.963 6.651-13.337 6.651-3.204 0-6.278-.866-10.348-2.34-3.076-1.127-12.731-5.069-16.608-6.304-3.572-1.105-5.608-1.387-7.903-1.387zm12.45-5.242c-2.966 0-5.78 1.495-7.167 3.705 1.69.021 4.244.39 8.466 1.927 4.222 1.43 12.017 4.766 14.744 5.698 3.032.997 5.934 1.82 8.813 1.82 3.226 0 6.106-1.061 7.621-3.79-3.01.388-5.845-.088-10.025-1.713-3.204-1.234-12.038-5.285-15.026-6.303-2.511-.845-4.936-1.344-7.383-1.344z"/></g><g><path fill="#ffc901" d="M8.766 23.004c-2.641 0-5.348 1.907-5.348 4.246 0 .89.303 1.842 1.148 2.428.411.324.411.8-.066 1.32-.563.607-1.385 1.083-2.208 1.083-.996 0-2.317-.93-2.317-2.73 0-.995.65-3.14 3.248-5.09 2.728-2.08 5.067-2.773 7.752-2.946 5.672-4.528 10.262-5.351 13.597-5.351 3.638 0 6.884 1.17 8.53 1.82 1.473.562 7.19 2.946 11.238 4.722 4.243 1.755 7.902 2.817 10.414 2.817 2.014 0 4.916-.716 4.916-3.185 0-.91-.369-1.538-.867-1.907-.281-.238-.498-.585-.498-.888 0-.91.823-2.295 2.252-2.295 1.602 0 2.468 1.603 2.468 2.816 0 3.292-3.594 5.524-6.02 6.52-4.46 4.744-8.963 6.651-13.337 6.651-3.204 0-6.278-.866-10.348-2.34-3.076-1.127-12.732-5.069-16.608-6.304-3.572-1.105-5.608-1.387-7.903-1.387zm12.45-5.242c-2.966 0-5.78 1.495-7.167 3.705 1.69.021 4.244.39 8.466 1.927 4.222 1.43 12.017 4.766 14.744 5.698 3.032.997 5.934 1.82 8.813 1.82 3.225 0 6.106-1.061 7.621-3.79-3.01.388-5.845-.088-10.025-1.713-3.204-1.234-12.038-5.285-15.026-6.303-2.511-.845-4.936-1.344-7.383-1.344z"/></g><g><g><text dominant-baseline="text-before-edge" style="text-transform:uppercase;line-height:66.64554px" fill="#fff" font-family="Atma" font-size="62.5" font-style="none" font-weight="400" transform="translate(120)"><tspan style="font-kerning:normal" font-family="'Chivo','Chivo-Regular'">About </tspan><tspan style="font-kerning:normal" font-family="Atma-Regular">L’G</tspan><tspan style="font-kerning:normal" font-family="Atma-Regular">ran</tspan></text></g></g></g></svg>